<svg xmlns="http://www.w3.org/2000/svg"><defs><style>.cls-1{fill:#d2e8ca;}</style></defs><title>Asset 2</title><g id="Layer_2" data-name="Layer 2"><g id="Layer_1-2" data-name="Layer 1"><path class="cls-1" d="M30.28,15.14A15.14,15.14,0,1,0,15.14,30.28,15.15,15.15,0,0,0,30.28,15.14m-4.42,0A10.73,10.73,0,1,1,15.14,4.42,10.74,10.74,0,0,1,25.87,15.14M17.67,8.2A.62.62,0,0,0,17,7.57H15.77a.62.62,0,0,0-.63.63v6.94H10.73a.62.62,0,0,0-.63.63V17a.62.62,0,0,0,.63.63H17a.62.62,0,0,0,.63-.63Z"/></g></g></svg>
